<svg width="96" height="25" viewBox="0 0 96 25" fill="none" xmlns="http://www.w3.org/2000/svg">
<path d="M13.5185 0V13.1719L4.15954 0H0V24.264H5.54605V11.0921L14.905 24.264H19.0646V0H13.5185Z" fill="white"/>
<path d="M30.5312 24.7493C35.6266 24.7493 39.7168 20.763 39.7168 15.5983C39.7168 10.4335 35.6266 6.44729 30.5312 6.44729C25.4357 6.44729 21.3455 10.4335 21.3455 15.5983C21.3455 20.763 25.4357 24.7493 30.5312 24.7493ZM30.5312 19.6885C28.2781 19.6885 26.5449 18.0593 26.5449 15.5983C26.5449 13.1372 28.2781 11.5081 30.5312 11.5081C32.7843 11.5081 34.5174 13.1372 34.5174 15.5983C34.5174 18.0593 32.7843 19.6885 30.5312 19.6885Z" fill="white"/>
<path d="M58.2866 0H40.2619V5.33808H46.5012V24.264H52.0473V5.33808H58.2866V0Z" fill="white"/>
<path d="M69.1734 6.93257V8.56172C68.0296 7.24453 66.3311 6.44729 64.0087 6.44729C59.4678 6.44729 55.7242 10.4335 55.7242 15.5983C55.7242 20.763 59.4678 24.7493 64.0087 24.7493C66.3311 24.7493 68.0296 23.952 69.1734 22.6348V24.264H74.3728V6.93257H69.1734ZM65.0485 19.8271C62.6568 19.8271 60.9237 18.198 60.9237 15.5983C60.9237 12.9986 62.6568 11.3694 65.0485 11.3694C67.4403 11.3694 69.1734 12.9986 69.1734 15.5983C69.1734 18.198 67.4403 19.8271 65.0485 19.8271Z" fill="white"/>
<path d="M87.7156 6.44729C85.3932 6.44729 83.6947 7.24453 82.5508 8.56172V0H77.3514V24.264H82.5508V22.6348C83.6947 23.952 85.3932 24.7493 87.7156 24.7493C92.2564 24.7493 96 20.763 96 15.5983C96 10.4335 92.2564 6.44729 87.7156 6.44729ZM86.6757 19.8271C84.284 19.8271 82.5508 18.198 82.5508 15.5983C82.5508 12.9986 84.284 11.3694 86.6757 11.3694C89.0674 11.3694 90.8006 12.9986 90.8006 15.5983C90.8006 18.198 89.0674 19.8271 86.6757 19.8271Z" fill="white"/>
</svg>
